<svg width="22" height="21" viewBox="0 0 22 21" fill="none" xmlns="http://www.w3.org/2000/svg">
<path d="M14.5094 7.875C15.0531 7.875 15.4938 7.43428 15.4938 6.89062C15.4938 6.34697 15.0531 5.90625 14.5094 5.90625C13.9657 5.90625 13.525 6.34697 13.525 6.89062C13.525 7.43428 13.9657 7.875 14.5094 7.875Z" fill="#161316"/>
<path d="M10.9 7.21875C10.2511 7.21875 9.61666 7.41119 9.07706 7.77174C8.53746 8.13229 8.1169 8.64475 7.86855 9.24432C7.6202 9.84389 7.55522 10.5036 7.68182 11.1401C7.80843 11.7766 8.12094 12.3613 8.57983 12.8202C9.03872 13.2791 9.62339 13.5916 10.2599 13.7182C10.8964 13.8448 11.5561 13.7798 12.1557 13.5315C12.7553 13.2831 13.2677 12.8626 13.6283 12.323C13.9888 11.7834 14.1813 11.149 14.1813 10.5C14.1813 9.62976 13.8356 8.79516 13.2202 8.17981C12.6049 7.56445 11.7703 7.21875 10.9 7.21875ZM10.9 12.63C10.4788 12.63 10.0669 12.5051 9.71667 12.271C9.36639 12.037 9.09338 11.7043 8.93217 11.3151C8.77096 10.9259 8.72878 10.4976 8.81096 10.0845C8.89315 9.67128 9.09601 9.29175 9.39389 8.99387C9.69178 8.69598 10.0713 8.49312 10.4845 8.41094C10.8977 8.32875 11.3259 8.37093 11.7151 8.53214C12.1043 8.69336 12.437 8.96637 12.671 9.31664C12.9051 9.66692 13.03 10.0787 13.03 10.5C13.03 11.0649 12.8056 11.6067 12.4062 12.0061C12.0067 12.4056 11.4649 12.63 10.9 12.63Z" fill="#161316"/>
<path d="M10.9 5.11984C12.6522 5.11984 12.86 5.12641 13.5518 5.15812C13.9679 5.16306 14.38 5.23946 14.7703 5.38398C15.0534 5.49319 15.3105 5.66045 15.525 5.87501C15.7396 6.08957 15.9068 6.34667 16.016 6.62977C16.1606 7.01998 16.237 7.43212 16.2419 7.8482C16.2736 8.54 16.2802 8.74781 16.2802 10.5005C16.2802 12.2533 16.2736 12.46 16.2419 13.1518C16.237 13.5679 16.1606 13.98 16.016 14.3702C15.9068 14.6533 15.7396 14.9104 15.525 15.125C15.3105 15.3395 15.0534 15.5068 14.7703 15.616C14.38 15.7605 13.9679 15.8369 13.5518 15.8419C12.86 15.8736 12.6522 15.8802 10.9 15.8802C9.14784 15.8802 8.94002 15.8736 8.24823 15.8419C7.83214 15.8369 7.42 15.7605 7.02979 15.616C6.74669 15.5068 6.48959 15.3395 6.27504 15.125C6.06048 14.9104 5.89322 14.6533 5.78401 14.3702C5.63949 13.98 5.56309 13.5679 5.55815 13.1518C5.52643 12.46 5.51987 12.2522 5.51987 10.5C5.51987 8.74781 5.52643 8.54 5.55815 7.8482C5.56309 7.43212 5.63949 7.01998 5.78401 6.62977C5.89322 6.34667 6.06048 6.08957 6.27504 5.87501C6.48959 5.66045 6.74669 5.49319 7.02979 5.38398C7.42 5.23946 7.83214 5.16306 8.24823 5.15812C8.94002 5.12641 9.14784 5.11984 10.9 5.11984M10.9 3.9375C9.11776 3.9375 8.89409 3.94516 8.19409 3.97688C7.64982 3.98787 7.11136 4.09105 6.60159 4.28203C6.16558 4.45063 5.7696 4.70847 5.43905 5.03903C5.1085 5.36958 4.85066 5.76555 4.68206 6.20156C4.49101 6.71151 4.38783 7.25016 4.3769 7.79461C4.34518 8.49461 4.33752 8.71719 4.33752 10.5C4.33752 12.2828 4.34518 12.5059 4.3769 13.2059C4.38789 13.7502 4.49107 14.2887 4.68206 14.7984C4.85066 15.2344 5.1085 15.6304 5.43905 15.961C5.7696 16.2915 6.16558 16.5494 6.60159 16.718C7.11153 16.909 7.65019 17.0122 8.19463 17.0231C8.89463 17.0548 9.11776 17.0625 10.9 17.0625C12.6823 17.0625 12.906 17.0548 13.606 17.0231C14.1504 17.0122 14.6891 16.909 15.199 16.718C15.635 16.5494 16.031 16.2915 16.3615 15.961C16.6921 15.6304 16.9499 15.2344 17.1185 14.7984C17.3094 14.2885 17.4124 13.7498 17.4231 13.2054C17.4549 12.5054 17.4625 12.2828 17.4625 10.5C17.4625 8.71719 17.4549 8.49406 17.4231 7.79406C17.4122 7.2498 17.309 6.71134 17.118 6.20156C16.9494 5.76555 16.6916 5.36958 16.361 5.03903C16.0304 4.70847 15.6345 4.45063 15.1985 4.28203C14.6885 4.09117 14.1498 3.98818 13.6054 3.97742C12.9054 3.94461 12.6828 3.9375 10.9 3.9375Z" fill="#161316"/>
</svg>
