<svg width="21" height="21" viewBox="0 0 21 21" fill="none" xmlns="http://www.w3.org/2000/svg">
<path d="M12.6 8.40041C12.0498 8.39866 11.5045 8.49768 10.9955 8.6918C10.4865 8.88592 10.0237 9.17133 9.63358 9.53171C9.24348 9.89209 8.93374 10.3204 8.72207 10.792C8.5104 11.2637 8.40097 11.7694 8.40002 12.2804V16.2004C8.40002 16.3595 8.4681 16.5121 8.58928 16.6247C8.71046 16.7372 8.87481 16.8004 9.04618 16.8004H10.5539C10.7252 16.8004 10.8896 16.7372 11.0108 16.6247C11.1319 16.5121 11.2 16.3595 11.2 16.2004V12.2804C11.1999 12.0987 11.241 11.919 11.3207 11.753C11.4003 11.587 11.5168 11.4384 11.6624 11.317C11.8081 11.1956 11.9796 11.1041 12.1659 11.0484C12.3522 10.9927 12.5491 10.9741 12.7436 10.9937C13.0925 11.0346 13.4132 11.1928 13.6448 11.4386C13.8764 11.6844 14.0028 12.0005 14 12.3271V16.2004C14 16.3595 14.0681 16.5121 14.1893 16.6247C14.3105 16.7372 14.4748 16.8004 14.6462 16.8004H16.1539C16.3252 16.8004 16.4896 16.7372 16.6108 16.6247C16.7319 16.5121 16.8 16.3595 16.8 16.2004V12.2804C16.7991 11.7694 16.6896 11.2637 16.478 10.792C16.2663 10.3204 15.9566 9.89209 15.5665 9.53171C15.1764 9.17133 14.7136 8.88592 14.2046 8.6918C13.6955 8.49768 13.1503 8.39866 12.6 8.40041Z" fill="#161316"/>
<path d="M6.71995 8.40039H4.82995C4.48201 8.40039 4.19995 8.68968 4.19995 9.04654V16.1542C4.19995 16.5111 4.48201 16.8004 4.82995 16.8004H6.71995C7.06789 16.8004 7.34995 16.5111 7.34995 16.1542V9.04654C7.34995 8.68968 7.06789 8.40039 6.71995 8.40039Z" fill="#161316"/>
<path d="M5.77495 7.3502C6.6448 7.3502 7.34995 6.64504 7.34995 5.7752C7.34995 4.90535 6.6448 4.2002 5.77495 4.2002C4.9051 4.2002 4.19995 4.90535 4.19995 5.7752C4.19995 6.64504 4.9051 7.3502 5.77495 7.3502Z" fill="#161316"/>
</svg>
