<svg width="103" height="103" viewBox="0 0 103 103" fill="none" xmlns="http://www.w3.org/2000/svg">
<path d="M76.9927 71.8678C83.7542 65.1028 87.5525 55.9297 87.5525 46.365C87.5525 36.8004 83.7542 27.6272 76.9927 20.8622C73.6458 17.5131 69.6718 14.8562 65.2977 13.0435C60.9235 11.2309 56.2351 10.2979 51.5002 10.2979C46.7654 10.2979 42.077 11.2309 37.7028 13.0435C33.3287 14.8562 29.3547 17.5131 26.0078 20.8622C19.2463 27.6272 15.448 36.8004 15.448 46.365C15.448 55.9297 19.2463 65.1028 26.0078 71.8678L33.8409 79.5877L44.3624 89.8104L45.0473 90.4181C49.0385 93.6523 54.8838 93.4463 58.6433 89.8104L71.1835 77.6049L76.9927 71.8678ZM51.5002 61.7996C47.4027 61.7996 43.4729 60.1718 40.5754 57.2744C37.678 54.3769 36.0502 50.4472 36.0502 46.3496C36.0502 42.252 37.678 38.3222 40.5754 35.4248C43.4729 32.5273 47.4027 30.8996 51.5002 30.8996C55.5978 30.8996 59.5276 32.5273 62.4251 35.4248C65.3225 38.3222 66.9502 42.252 66.9502 46.3496C66.9502 50.4472 65.3225 54.3769 62.4251 57.2744C59.5276 60.1718 55.5978 61.7996 51.5002 61.7996Z" fill="#FDCA40"/>
</svg>
