<svg width="221" height="39" viewBox="0 0 221 39" fill="none" xmlns="http://www.w3.org/2000/svg">
<path d="M17.5354 5.121C17.7166 4.75401 17.9968 4.44503 18.3445 4.22898C18.6921 4.01293 19.0932 3.89844 19.5025 3.89844C19.9118 3.89844 20.3129 4.01293 20.6605 4.22898C21.0081 4.44503 21.2883 4.75401 21.4695 5.121L25.177 12.6334L33.4669 13.8399C33.8722 13.8984 34.253 14.0691 34.5663 14.3327C34.8796 14.5964 35.1128 14.9425 35.2396 15.3318C35.3664 15.7211 35.3818 16.1382 35.2839 16.5357C35.186 16.9333 34.9787 17.2956 34.6857 17.5815L28.6845 23.4291L30.1007 31.6849C30.1701 32.0884 30.1252 32.5033 29.971 32.8826C29.8168 33.262 29.5595 33.5906 29.2283 33.8313C28.897 34.072 28.505 34.2151 28.0966 34.2446C27.6882 34.2741 27.2797 34.1887 26.9173 33.9981L19.5025 30.0981L12.0876 33.9981C11.7252 34.1887 11.3167 34.2741 10.9083 34.2446C10.4999 34.2151 10.1079 34.072 9.77668 33.8313C9.44544 33.5906 9.18817 33.262 9.03398 32.8826C8.87979 32.5033 8.83485 32.0884 8.90422 31.6849L10.318 23.4291L4.32172 17.5791C4.02939 17.2932 3.82277 16.9313 3.72517 16.5343C3.62756 16.1372 3.64286 15.7208 3.76934 15.332C3.89582 14.9432 4.12845 14.5974 4.44097 14.3338C4.75349 14.0702 5.13347 13.8991 5.53804 13.8399L13.8255 12.6334L17.5354 5.121Z" fill="#FDCA40"/>
<path d="M63.5354 5.121C63.7166 4.75401 63.9968 4.44503 64.3445 4.22898C64.6921 4.01293 65.0932 3.89844 65.5025 3.89844C65.9118 3.89844 66.3129 4.01293 66.6605 4.22898C67.0081 4.44503 67.2883 4.75401 67.4695 5.121L71.177 12.6334L79.4669 13.8399C79.8722 13.8984 80.253 14.0691 80.5663 14.3327C80.8796 14.5964 81.1128 14.9425 81.2396 15.3318C81.3664 15.7211 81.3818 16.1382 81.2839 16.5357C81.186 16.9333 80.9787 17.2956 80.6857 17.5815L74.6845 23.4291L76.1007 31.6849C76.1701 32.0884 76.1252 32.5033 75.971 32.8826C75.8168 33.262 75.5595 33.5906 75.2283 33.8313C74.897 34.072 74.505 34.2151 74.0966 34.2446C73.6882 34.2741 73.2797 34.1887 72.9173 33.9981L65.5025 30.0981L58.0876 33.9981C57.7252 34.1887 57.3167 34.2741 56.9083 34.2446C56.4999 34.2151 56.1079 34.072 55.7767 33.8313C55.4454 33.5906 55.1882 33.262 55.034 32.8826C54.8798 32.5033 54.8348 32.0884 54.9042 31.6849L56.318 23.4291L50.3217 17.5791C50.0294 17.2932 49.8228 16.9313 49.7252 16.5343C49.6276 16.1372 49.6429 15.7208 49.7693 15.332C49.8958 14.9432 50.1284 14.5974 50.441 14.3338C50.7535 14.0702 51.1335 13.8991 51.538 13.8399L59.8255 12.6334L63.5354 5.121Z" fill="#FDCA40"/>
<path d="M108.535 5.121C108.717 4.75401 108.997 4.44503 109.344 4.22898C109.692 4.01293 110.093 3.89844 110.502 3.89844C110.912 3.89844 111.313 4.01293 111.66 4.22898C112.008 4.44503 112.288 4.75401 112.47 5.121L116.177 12.6334L124.467 13.8399C124.872 13.8984 125.253 14.0691 125.566 14.3327C125.88 14.5964 126.113 14.9425 126.24 15.3318C126.366 15.7211 126.382 16.1382 126.284 16.5357C126.186 16.9333 125.979 17.2956 125.686 17.5815L119.685 23.4291L121.101 31.6849C121.17 32.0884 121.125 32.5033 120.971 32.8826C120.817 33.262 120.56 33.5906 120.228 33.8313C119.897 34.072 119.505 34.2151 119.097 34.2446C118.688 34.2741 118.28 34.1887 117.917 33.9981L110.502 30.0981L103.088 33.9981C102.725 34.1887 102.317 34.2741 101.908 34.2446C101.5 34.2151 101.108 34.072 100.777 33.8313C100.445 33.5906 100.188 33.262 100.034 32.8826C99.8798 32.5033 99.8348 32.0884 99.9042 31.6849L101.318 23.4291L95.3217 17.5791C95.0294 17.2932 94.8228 16.9313 94.7252 16.5343C94.6276 16.1372 94.6429 15.7208 94.7693 15.332C94.8958 14.9432 95.1284 14.5974 95.441 14.3338C95.7535 14.0702 96.1335 13.8991 96.538 13.8399L104.826 12.6334L108.535 5.121Z" fill="#FDCA40"/>
<path d="M154.535 5.121C154.717 4.75401 154.997 4.44503 155.344 4.22898C155.692 4.01293 156.093 3.89844 156.502 3.89844C156.912 3.89844 157.313 4.01293 157.66 4.22898C158.008 4.44503 158.288 4.75401 158.47 5.121L162.177 12.6334L170.467 13.8399C170.872 13.8984 171.253 14.0691 171.566 14.3327C171.88 14.5964 172.113 14.9425 172.24 15.3318C172.366 15.7211 172.382 16.1382 172.284 16.5357C172.186 16.9333 171.979 17.2956 171.686 17.5815L165.685 23.4291L167.101 31.6849C167.17 32.0884 167.125 32.5033 166.971 32.8826C166.817 33.262 166.56 33.5906 166.228 33.8313C165.897 34.072 165.505 34.2151 165.097 34.2446C164.688 34.2741 164.28 34.1887 163.917 33.9981L156.502 30.0981L149.088 33.9981C148.725 34.1887 148.317 34.2741 147.908 34.2446C147.5 34.2151 147.108 34.072 146.777 33.8313C146.445 33.5906 146.188 33.262 146.034 32.8826C145.88 32.5033 145.835 32.0884 145.904 31.6849L147.318 23.4291L141.322 17.5791C141.029 17.2932 140.823 16.9313 140.725 16.5343C140.628 16.1372 140.643 15.7208 140.769 15.332C140.896 14.9432 141.128 14.5974 141.441 14.3338C141.753 14.0702 142.133 13.8991 142.538 13.8399L150.826 12.6334L154.535 5.121Z" fill="#FDCA40"/>
<path d="M199.535 5.121C199.717 4.75401 199.997 4.44503 200.344 4.22898C200.692 4.01293 201.093 3.89844 201.502 3.89844C201.912 3.89844 202.313 4.01293 202.66 4.22898C203.008 4.44503 203.288 4.75401 203.47 5.121L207.177 12.6334L215.467 13.8399C215.872 13.8984 216.253 14.0691 216.566 14.3327C216.88 14.5964 217.113 14.9425 217.24 15.3318C217.366 15.7211 217.382 16.1382 217.284 16.5357C217.186 16.9333 216.979 17.2956 216.686 17.5815L210.685 23.4291L212.101 31.6849C212.17 32.0884 212.125 32.5033 211.971 32.8826C211.817 33.262 211.56 33.5906 211.228 33.8313C210.897 34.072 210.505 34.2151 210.097 34.2446C209.688 34.2741 209.28 34.1887 208.917 33.9981L201.502 30.0981L194.088 33.9981C193.725 34.1887 193.317 34.2741 192.908 34.2446C192.5 34.2151 192.108 34.072 191.777 33.8313C191.445 33.5906 191.188 33.262 191.034 32.8826C190.88 32.5033 190.835 32.0884 190.904 31.6849L192.318 23.4291L186.322 17.5791C186.029 17.2932 185.823 16.9313 185.725 16.5343C185.628 16.1372 185.643 15.7208 185.769 15.332C185.896 14.9432 186.128 14.5974 186.441 14.3338C186.753 14.0702 187.133 13.8991 187.538 13.8399L195.826 12.6334L199.535 5.121Z" fill="#FDCA40"/>
</svg>
