<svg width="22" height="21" viewBox="0 0 22 21" fill="none" xmlns="http://www.w3.org/2000/svg">
<path d="M8.02245 16.3664C9.13095 16.3734 10.2298 16.1602 11.2553 15.7392C12.2807 15.3182 13.2124 14.6978 13.9963 13.914C14.7801 13.1301 15.4005 12.1985 15.8215 11.173C16.2425 10.1475 16.4557 9.04869 16.4487 7.94019V7.553C17.0233 7.13201 17.5207 6.61468 17.9187 6.02394C17.3776 6.26058 16.8051 6.41752 16.219 6.48988C16.8404 6.11961 17.3067 5.53678 17.5315 4.84925C16.9524 5.1967 16.3173 5.44095 15.6546 5.57112C15.2083 5.09558 14.6178 4.78038 13.9743 4.67428C13.3308 4.56819 12.6703 4.67712 12.095 4.98421C11.5196 5.29131 11.0615 5.77945 10.7916 6.37311C10.5216 6.96678 10.4548 7.63286 10.6015 8.26831C9.42422 8.21053 8.27229 7.90542 7.22075 7.37286C6.1692 6.84031 5.24162 6.09224 4.49839 5.17737C4.12362 5.82783 4.01002 6.5964 4.18061 7.32746C4.35119 8.05852 4.7932 8.69745 5.41714 9.11488C4.95685 9.09712 4.50722 8.97122 4.10464 8.74737V8.78019C4.10055 9.45995 4.32955 10.1206 4.75348 10.652C5.1774 11.1834 5.77064 11.5535 6.43433 11.7005C6.00621 11.8156 5.55777 11.8336 5.12183 11.753C5.31397 12.3327 5.68074 12.8388 6.17186 13.2019C6.66297 13.5649 7.25437 13.7671 7.86495 13.7808C6.821 14.6212 5.52351 15.0837 4.18339 15.0933C3.94842 15.0865 3.714 15.0668 3.4812 15.0342C4.83764 15.8985 6.41412 16.3541 8.02245 16.3468" fill="#161316"/>
</svg>
