<svg xmlns="http://www.w3.org/2000/svg" xmlns:xlink="http://www.w3.org/1999/xlink" viewBox="0 0 337.63 337.63"><defs><style>.cls-1{fill:url(#linear-gradient);}.cls-2{fill:#fff;}</style><linearGradient id="linear-gradient" x1="168.82" y1="336.9" x2="168.82" y2="2.59" gradientUnits="userSpaceOnUse"><stop offset="0" stop-color="#fff33b"/><stop offset="1" stop-color="#e93e3a"/></linearGradient></defs><g id="Layer_2" data-name="Layer 2"><g id="Layer_1-2" data-name="Layer 1"><rect class="cls-1" width="337.63" height="337.63" rx="51.34"/><path class="cls-2" d="M85.44,270.54a288.53,288.53,0,0,1,12-45.31,380.88,380.88,0,0,1,18.09-42.95,410.31,410.31,0,0,1,22-39q11.79-18.4,23.6-33.35a317.29,317.29,0,0,1,23-26.27,184.43,184.43,0,0,1,20-17.94,43.15,43.15,0,0,1,13.06-6.29,73.2,73.2,0,0,1,14.47-2.83,41.68,41.68,0,0,1,12.74.63q5.67,1.26,7.55,4.09c1.26,1.88,1,4.3-.94,7.23s-6.09,6.3-12.59,10.07A206,206,0,0,0,200,109a330.45,330.45,0,0,0-34.3,40,416.92,416.92,0,0,0-28.32,44.36,392.77,392.77,0,0,0-20.77,43.27,65.94,65.94,0,0,1,12.12-7.87,25.61,25.61,0,0,1,11.17-2.83A16.32,16.32,0,0,1,150,229.17a59,59,0,0,1,8,7.23q3.61,3.94,6.92,7.24a10,10,0,0,0,7.08,3.3,32,32,0,0,0,12.59-2.83,63.06,63.06,0,0,0,12.74-7.39A115.47,115.47,0,0,0,208.79,227a107.26,107.26,0,0,0,9.12-9.91A24.22,24.22,0,0,1,225,210.6q3.3-1.72,5.35-1.1c1.36.42,2,1.57,2,3.46s-1.06,4.51-3.15,7.87-5.88,8.07-11.33,14.16a251.21,251.21,0,0,1-18.25,18.25,157.12,157.12,0,0,1-20.61,15.89q-10.55,6.76-18.4,6.76-10.08,0-14.64-4.72A36.54,36.54,0,0,1,138.93,261a103.06,103.06,0,0,1-4.09-10.23q-1.58-4.72-5.35-4.72-4.08,0-10.06,4.88A149.85,149.85,0,0,0,108.1,261.1a39.74,39.74,0,0,1-7.24,12.9q-4.41,5-8.34,6.61c-2.62,1.05-4.67.84-6.13-.63S84.6,275.37,85.44,270.54Z"/></g></g></svg>