<svg width="34" height="34" viewBox="0 0 34 34" fill="none" xmlns="http://www.w3.org/2000/svg">
<path fill-rule="evenodd" clip-rule="evenodd" d="M8.50005 16.9996C8.50005 16.7178 8.61199 16.4476 8.81125 16.2483C9.01051 16.0491 9.28076 15.9371 9.56255 15.9371L21.8727 15.9371L17.3103 11.3769C17.2115 11.2781 17.1332 11.1608 17.0797 11.0317C17.0262 10.9027 16.9987 10.7643 16.9987 10.6246C16.9987 10.4849 17.0262 10.3466 17.0797 10.2175C17.1332 10.0884 17.2115 9.97117 17.3103 9.87238C17.4091 9.7736 17.5264 9.69524 17.6554 9.64177C17.7845 9.58831 17.9228 9.56079 18.0626 9.56079C18.2023 9.56079 18.3406 9.58831 18.4697 9.64177C18.5987 9.69524 18.716 9.7736 18.8148 9.87238L25.1898 16.2474C25.2888 16.3461 25.3673 16.4633 25.4208 16.5924C25.4744 16.7215 25.502 16.8599 25.502 16.9996C25.502 17.1394 25.4744 17.2778 25.4208 17.4069C25.3673 17.5359 25.2888 17.6532 25.1898 17.7519L18.8148 24.1269C18.6153 24.3264 18.3447 24.4385 18.0626 24.4385C17.7804 24.4385 17.5098 24.3264 17.3103 24.1269C17.1108 23.9274 16.9987 23.6568 16.9987 23.3746C16.9987 23.0925 17.1108 22.8219 17.3103 22.6224L21.8727 18.0621L9.56255 18.0621C9.28076 18.0621 9.01051 17.9502 8.81125 17.7509C8.61199 17.5517 8.50005 17.2814 8.50005 16.9996Z" fill="#EFF5F8"/>
</svg>
